<?xml version="1.0" standalone="no"?>
<!DOCTYPE svg PUBLIC "-//W3C//DTD SVG 20010904//EN"
 "http://www.w3.org/TR/2001/REC-SVG-20010904/DTD/svg10.dtd">
<svg version="1.0" xmlns="http://www.w3.org/2000/svg"
 width="200.000000pt" height="200.000000pt" viewBox="0 0 200.000000 200.000000"
 preserveAspectRatio="xMidYMid meet">

<g transform="translate(0.000000,200.000000) scale(0.100000,-0.100000)"
fill="#000000" stroke="none">
<path d="M1038 1313 c18 -3 22 -11 22 -39 0 -31 -3 -35 -20 -29 -19 6 -20 2
-20 -84 0 -81 13 -141 29 -141 18 0 43 71 60 168 0 4 7 7 14 7 6 0 11 -6 10
-12 -5 -24 19 -116 38 -147 10 -17 19 -37 19 -43 0 -19 -41 -16 -56 5 -13 16
-15 16 -27 0 -7 -9 -31 -18 -53 -21 l-39 -4 41 -1 c22 -1 45 -7 52 -14 11 -11
19 -10 82 22 19 9 27 224 9 246 -7 8 -31 14 -60 14 l-48 0 -3 38 c-3 35 -5 37
-38 39 -19 0 -25 -1 -12 -4z"/>
<path d="M943 1275 c0 -22 2 -30 4 -17 2 12 2 30 0 40 -3 9 -5 -1 -4 -23z"/>
<path d="M1110 1107 c0 -10 -9 -35 -20 -57 -23 -45 -27 -75 -6 -47 17 22 52
22 64 1 5 -9 13 -15 18 -13 5 2 -6 33 -23 69 -18 36 -33 57 -33 47z"/>
<path d="M105 835 c0 -69 3 -85 15 -85 12 0 14 11 12 56 l-4 56 29 -4 c27 -3
28 -5 26 -55 -2 -41 1 -53 12 -53 12 0 15 17 15 85 0 69 -3 85 -15 85 -9 0
-15 -10 -15 -26 0 -21 -4 -25 -22 -22 -17 2 -23 9 -22 26 0 14 -5 22 -15 22
-13 0 -16 -14 -16 -85z"/>
<path d="M250 905 c0 -8 7 -15 15 -15 8 0 15 7 15 15 0 8 -7 15 -15 15 -8 0
-15 -7 -15 -15z"/>
<path d="M430 835 c0 -69 3 -85 15 -85 11 0 15 12 15 44 0 28 5 46 14 49 21 8
26 -2 26 -50 0 -23 5 -43 11 -43 6 0 9 21 7 53 -3 49 -4 52 -30 52 -25 -1 -28
3 -28 32 0 23 -5 33 -15 33 -12 0 -15 -16 -15 -85z"/>
<path d="M682 903 c-12 -24 -5 -42 31 -80 20 -22 28 -38 24 -52 -6 -25 9 -28
21 -3 12 22 6 40 -29 80 -16 18 -29 39 -29 47 0 22 27 18 44 -7 l16 -22 0 27
c0 24 -4 27 -35 27 -23 0 -37 -6 -43 -17z"/>
<path d="M995 835 c0 -61 3 -85 13 -85 7 0 12 14 12 35 0 19 4 35 9 35 5 0 12
-16 15 -35 4 -22 13 -35 22 -35 9 0 14 3 12 8 -2 4 -10 19 -17 34 -12 24 -12
29 4 44 13 13 14 19 5 22 -7 3 -17 -3 -22 -12 -16 -29 -28 -17 -28 29 0 29 -4
45 -12 45 -10 0 -13 -24 -13 -85z"/>
<path d="M1405 835 c0 -61 3 -85 13 -85 8 0 12 18 12 55 0 52 1 55 25 55 24 0
25 -3 25 -55 0 -42 3 -55 15 -55 12 0 15 16 15 85 0 69 -3 85 -15 85 -9 0 -15
-10 -15 -26 0 -21 -4 -25 -22 -22 -15 2 -24 11 -26 26 -2 12 -9 22 -15 22 -9
0 -12 -26 -12 -85z"/>
<path d="M1868 835 c2 -57 7 -85 15 -85 8 0 12 27 12 85 0 69 -3 85 -15 85
-12 0 -14 -15 -12 -85z"/>
<path d="M802 883 c-19 -34 -3 -127 23 -131 16 -3 18 -1 8 9 -7 7 -13 30 -13
50 0 31 4 38 23 42 22 4 22 4 0 6 -14 1 -23 9 -25 24 l-3 22 -13 -22z"/>
<path d="M1680 877 c-19 -39 -3 -120 25 -125 16 -3 18 -1 8 9 -7 7 -13 30 -13
50 0 31 4 38 23 42 22 4 22 4 0 6 -14 1 -23 9 -25 24 -4 21 -5 21 -18 -6z"/>
<path d="M250 805 c0 -42 3 -55 15 -55 12 0 15 13 15 55 0 42 -3 55 -15 55
-12 0 -15 -13 -15 -55z"/>
<path d="M329 839 c-24 -24 -23 -82 1 -87 12 -2 15 6 12 36 -3 26 1 42 12 52
15 12 17 7 15 -51 -1 -35 -6 -70 -12 -76 -6 -9 -6 -13 1 -13 18 0 32 35 39
100 6 60 6 60 -21 60 -14 0 -35 -9 -47 -21z"/>
<path d="M880 838 c1 -21 2 -21 11 -5 5 9 17 17 24 17 19 0 21 -86 3 -93 -7
-2 -1 -4 15 -4 25 0 27 3 27 37 0 58 -8 70 -46 70 -29 0 -34 -4 -34 -22z"/>
<path d="M1108 835 c-15 -33 0 -79 27 -82 11 -2 14 0 8 3 -17 8 -17 34 0 34
21 0 50 37 44 55 -4 9 -19 15 -37 15 -23 0 -33 -6 -42 -25z m50 -7 c-5 -32
-28 -35 -28 -4 0 17 5 26 16 26 10 0 14 -7 12 -22z"/>
<path d="M1216 844 c-4 -9 6 -26 25 -44 17 -15 28 -33 25 -39 -4 -6 -2 -11 4
-11 25 0 23 34 -3 56 -15 13 -27 28 -27 34 0 14 23 13 38 -2 9 -9 12 -8 12 5
0 23 -65 24 -74 1z"/>
<path d="M1548 835 c-13 -29 6 -85 29 -85 12 0 13 3 4 14 -19 22 -10 80 13 84
16 3 18 -2 15 -47 -4 -55 9 -63 24 -17 14 42 -5 76 -43 76 -23 0 -33 -6 -42
-25z"/>
<path d="M1760 841 c-14 -26 -13 -64 2 -79 18 -18 27 -15 21 8 -4 13 0 20 9
20 22 0 51 37 45 55 -9 22 -64 19 -77 -4z m50 -11 c0 -11 -7 -23 -15 -27 -21
-7 -25 -2 -18 25 7 28 33 29 33 2z"/>
<path d="M573 813 c15 -2 37 -2 50 0 12 2 0 4 -28 4 -27 0 -38 -2 -22 -4z"/>
<path d="M880 795 c-13 -16 -7 -45 9 -45 6 0 8 6 5 14 -3 7 2 21 11 30 14 13
14 16 2 16 -8 0 -20 -7 -27 -15z"/>
<path d="M674 786 c-7 -18 8 -41 23 -35 5 2 3 15 -3 29 -12 22 -14 22 -20 6z"/>
<path d="M1170 765 c-7 -9 -8 -15 -2 -15 5 0 12 7 16 15 3 8 4 15 2 15 -2 0
-9 -7 -16 -15z"/>
<path d="M1216 773 c-11 -11 -6 -21 14 -26 11 -3 20 -3 20 0 0 10 -28 32 -34
26z"/>
<path d="M1820 765 c-7 -9 -8 -15 -2 -15 5 0 12 7 16 15 3 8 4 15 2 15 -2 0
-9 -7 -16 -15z"/>
</g>
</svg>
